<mxfile host="app.diagrams.net" modified="2023-04-08T16:05:03.021Z" agent="Mozilla/5.0 (Windows NT 10.0; Win64; x64) AppleWebKit/537.36 (KHTML, like Gecko) Chrome/112.0.0.0 Safari/537.36" etag="o-b-Ax7QTkRJl4ZFtbU1" version="21.1.5" type="github">
  <diagram name="Page-1" id="Fsw7o8f_xQCobdHqsH01">
    <mxGraphModel dx="1050" dy="687" grid="1" gridSize="10" guides="1" tooltips="1" connect="1" arrows="1" fold="1" page="1" pageScale="1" pageWidth="1100" pageHeight="850" math="0" shadow="0">
      <root>
        <mxCell id="0" />
        <mxCell id="1" parent="0" />
        <mxCell id="KNuXZPVBmtlSGKYRK09C-23" style="edgeStyle=orthogonalEdgeStyle;rounded=0;orthogonalLoop=1;jettySize=auto;html=1;exitX=0.5;exitY=1;exitDx=0;exitDy=0;" parent="1" source="KNuXZPVBmtlSGKYRK09C-2" edge="1">
          <mxGeometry relative="1" as="geometry">
            <mxPoint x="420.04347826086973" y="180.39130434782612" as="targetPoint" />
          </mxGeometry>
        </mxCell>
        <mxCell id="KNuXZPVBmtlSGKYRK09C-2" value="Register" style="rounded=1;whiteSpace=wrap;html=1;" parent="1" vertex="1">
          <mxGeometry x="370" y="150" width="100" height="30" as="geometry" />
        </mxCell>
        <mxCell id="KNuXZPVBmtlSGKYRK09C-3" value="Login" style="rounded=1;whiteSpace=wrap;html=1;" parent="1" vertex="1">
          <mxGeometry x="570" y="150" width="100" height="30" as="geometry" />
        </mxCell>
        <mxCell id="KNuXZPVBmtlSGKYRK09C-4" value="Home" style="rounded=1;whiteSpace=wrap;html=1;" parent="1" vertex="1">
          <mxGeometry x="470" y="210" width="100" height="30" as="geometry" />
        </mxCell>
        <mxCell id="KNuXZPVBmtlSGKYRK09C-9" value="Add Recipe" style="rounded=1;whiteSpace=wrap;html=1;" parent="1" vertex="1">
          <mxGeometry x="70" y="310" width="100" height="30" as="geometry" />
        </mxCell>
        <mxCell id="KNuXZPVBmtlSGKYRK09C-11" value="Pesonal Cookbook" style="rounded=1;whiteSpace=wrap;html=1;" parent="1" vertex="1">
          <mxGeometry x="360" y="310" width="110" height="30" as="geometry" />
        </mxCell>
        <mxCell id="KNuXZPVBmtlSGKYRK09C-12" value="Public Recipe Feed" style="rounded=1;whiteSpace=wrap;html=1;" parent="1" vertex="1">
          <mxGeometry x="650" y="310" width="110" height="30" as="geometry" />
        </mxCell>
        <mxCell id="KNuXZPVBmtlSGKYRK09C-13" value="My Profile" style="rounded=1;whiteSpace=wrap;html=1;" parent="1" vertex="1">
          <mxGeometry x="250" y="420" width="100" height="30" as="geometry" />
        </mxCell>
        <mxCell id="KNuXZPVBmtlSGKYRK09C-14" value="Favorite Recipe" style="rounded=1;whiteSpace=wrap;html=1;" parent="1" vertex="1">
          <mxGeometry x="365" y="420" width="100" height="30" as="geometry" />
        </mxCell>
        <mxCell id="KNuXZPVBmtlSGKYRK09C-18" value="&lt;b&gt;User&lt;/b&gt;" style="text;html=1;strokeColor=none;fillColor=none;align=center;verticalAlign=middle;whiteSpace=wrap;rounded=0;" parent="1" vertex="1">
          <mxGeometry x="490" y="50" width="60" height="30" as="geometry" />
        </mxCell>
        <mxCell id="KNuXZPVBmtlSGKYRK09C-19" value="Recipe Details" style="rounded=1;whiteSpace=wrap;html=1;" parent="1" vertex="1">
          <mxGeometry x="600" y="420" width="100" height="30" as="geometry" />
        </mxCell>
        <mxCell id="KNuXZPVBmtlSGKYRK09C-20" value="Personal Recipes" style="rounded=1;whiteSpace=wrap;html=1;" parent="1" vertex="1">
          <mxGeometry x="480" y="420" width="100" height="30" as="geometry" />
        </mxCell>
        <mxCell id="KNuXZPVBmtlSGKYRK09C-24" value="" style="endArrow=classic;startArrow=classic;html=1;rounded=0;exitX=0.5;exitY=1;exitDx=0;exitDy=0;entryX=0;entryY=0.25;entryDx=0;entryDy=0;" parent="1" source="KNuXZPVBmtlSGKYRK09C-2" target="KNuXZPVBmtlSGKYRK09C-4" edge="1">
          <mxGeometry width="50" height="50" relative="1" as="geometry">
            <mxPoint x="530" y="370" as="sourcePoint" />
            <mxPoint x="580" y="320" as="targetPoint" />
          </mxGeometry>
        </mxCell>
        <mxCell id="KNuXZPVBmtlSGKYRK09C-26" value="" style="endArrow=classic;startArrow=classic;html=1;rounded=0;entryX=0.5;entryY=1;entryDx=0;entryDy=0;exitX=1;exitY=0;exitDx=0;exitDy=0;" parent="1" source="KNuXZPVBmtlSGKYRK09C-4" target="KNuXZPVBmtlSGKYRK09C-3" edge="1">
          <mxGeometry width="50" height="50" relative="1" as="geometry">
            <mxPoint x="530" y="370" as="sourcePoint" />
            <mxPoint x="580" y="320" as="targetPoint" />
          </mxGeometry>
        </mxCell>
        <mxCell id="KNuXZPVBmtlSGKYRK09C-27" value="" style="endArrow=classic;startArrow=classic;html=1;rounded=0;exitX=0.25;exitY=1;exitDx=0;exitDy=0;entryX=1;entryY=0;entryDx=0;entryDy=0;" parent="1" source="KNuXZPVBmtlSGKYRK09C-4" target="KNuXZPVBmtlSGKYRK09C-9" edge="1">
          <mxGeometry width="50" height="50" relative="1" as="geometry">
            <mxPoint x="530" y="370" as="sourcePoint" />
            <mxPoint x="580" y="320" as="targetPoint" />
          </mxGeometry>
        </mxCell>
        <mxCell id="KNuXZPVBmtlSGKYRK09C-28" value="" style="endArrow=classic;startArrow=classic;html=1;rounded=0;exitX=0.5;exitY=0;exitDx=0;exitDy=0;entryX=0.5;entryY=1;entryDx=0;entryDy=0;" parent="1" source="KNuXZPVBmtlSGKYRK09C-11" target="KNuXZPVBmtlSGKYRK09C-4" edge="1">
          <mxGeometry width="50" height="50" relative="1" as="geometry">
            <mxPoint x="530" y="380" as="sourcePoint" />
            <mxPoint x="580" y="330" as="targetPoint" />
          </mxGeometry>
        </mxCell>
        <mxCell id="KNuXZPVBmtlSGKYRK09C-29" value="" style="endArrow=classic;startArrow=classic;html=1;rounded=0;exitX=0;exitY=0;exitDx=0;exitDy=0;entryX=0.75;entryY=1;entryDx=0;entryDy=0;" parent="1" source="KNuXZPVBmtlSGKYRK09C-12" target="KNuXZPVBmtlSGKYRK09C-4" edge="1">
          <mxGeometry width="50" height="50" relative="1" as="geometry">
            <mxPoint x="530" y="380" as="sourcePoint" />
            <mxPoint x="580" y="330" as="targetPoint" />
          </mxGeometry>
        </mxCell>
        <mxCell id="KNuXZPVBmtlSGKYRK09C-30" value="" style="endArrow=classic;startArrow=classic;html=1;rounded=0;exitX=1;exitY=0;exitDx=0;exitDy=0;entryX=0.25;entryY=1;entryDx=0;entryDy=0;" parent="1" source="KNuXZPVBmtlSGKYRK09C-13" target="KNuXZPVBmtlSGKYRK09C-11" edge="1">
          <mxGeometry width="50" height="50" relative="1" as="geometry">
            <mxPoint x="530" y="380" as="sourcePoint" />
            <mxPoint x="580" y="330" as="targetPoint" />
          </mxGeometry>
        </mxCell>
        <mxCell id="KNuXZPVBmtlSGKYRK09C-31" value="" style="endArrow=classic;startArrow=classic;html=1;rounded=0;exitX=0.5;exitY=0;exitDx=0;exitDy=0;entryX=0.5;entryY=1;entryDx=0;entryDy=0;" parent="1" source="KNuXZPVBmtlSGKYRK09C-14" target="KNuXZPVBmtlSGKYRK09C-11" edge="1">
          <mxGeometry width="50" height="50" relative="1" as="geometry">
            <mxPoint x="560" y="370" as="sourcePoint" />
            <mxPoint x="610" y="320" as="targetPoint" />
          </mxGeometry>
        </mxCell>
        <mxCell id="KNuXZPVBmtlSGKYRK09C-32" value="" style="endArrow=classic;startArrow=classic;html=1;rounded=0;exitX=0;exitY=0;exitDx=0;exitDy=0;entryX=0.75;entryY=1;entryDx=0;entryDy=0;" parent="1" source="KNuXZPVBmtlSGKYRK09C-20" target="KNuXZPVBmtlSGKYRK09C-11" edge="1">
          <mxGeometry width="50" height="50" relative="1" as="geometry">
            <mxPoint x="560" y="370" as="sourcePoint" />
            <mxPoint x="610" y="320" as="targetPoint" />
          </mxGeometry>
        </mxCell>
        <mxCell id="KNuXZPVBmtlSGKYRK09C-33" value="" style="endArrow=classic;startArrow=classic;html=1;rounded=0;entryX=0.5;entryY=0;entryDx=0;entryDy=0;exitX=0.5;exitY=1;exitDx=0;exitDy=0;" parent="1" source="KNuXZPVBmtlSGKYRK09C-12" target="KNuXZPVBmtlSGKYRK09C-19" edge="1">
          <mxGeometry width="50" height="50" relative="1" as="geometry">
            <mxPoint x="560" y="370" as="sourcePoint" />
            <mxPoint x="610" y="320" as="targetPoint" />
          </mxGeometry>
        </mxCell>
        <mxCell id="KNuXZPVBmtlSGKYRK09C-34" value="Save Recipe" style="rounded=1;whiteSpace=wrap;html=1;" parent="1" vertex="1">
          <mxGeometry x="740" y="420" width="100" height="30" as="geometry" />
        </mxCell>
        <mxCell id="KNuXZPVBmtlSGKYRK09C-35" value="" style="endArrow=classic;startArrow=classic;html=1;rounded=0;entryX=0.5;entryY=0;entryDx=0;entryDy=0;exitX=0.75;exitY=1;exitDx=0;exitDy=0;" parent="1" source="KNuXZPVBmtlSGKYRK09C-12" target="KNuXZPVBmtlSGKYRK09C-34" edge="1">
          <mxGeometry width="50" height="50" relative="1" as="geometry">
            <mxPoint x="885" y="340" as="sourcePoint" />
            <mxPoint x="820" y="430" as="targetPoint" />
          </mxGeometry>
        </mxCell>
        <mxCell id="KNuXZPVBmtlSGKYRK09C-39" style="edgeStyle=orthogonalEdgeStyle;rounded=0;orthogonalLoop=1;jettySize=auto;html=1;exitX=1;exitY=0.5;exitDx=0;exitDy=0;" parent="1" source="KNuXZPVBmtlSGKYRK09C-36" target="KNuXZPVBmtlSGKYRK09C-3" edge="1">
          <mxGeometry relative="1" as="geometry" />
        </mxCell>
        <mxCell id="KNuXZPVBmtlSGKYRK09C-40" style="edgeStyle=orthogonalEdgeStyle;rounded=0;orthogonalLoop=1;jettySize=auto;html=1;exitX=0;exitY=0.5;exitDx=0;exitDy=0;entryX=0.5;entryY=0;entryDx=0;entryDy=0;" parent="1" source="KNuXZPVBmtlSGKYRK09C-36" target="KNuXZPVBmtlSGKYRK09C-2" edge="1">
          <mxGeometry relative="1" as="geometry" />
        </mxCell>
        <mxCell id="KNuXZPVBmtlSGKYRK09C-36" value="" style="ellipse;html=1;shape=startState;fillColor=#000000;strokeColor=#ff0000;" parent="1" vertex="1">
          <mxGeometry x="505" y="80" width="30" height="30" as="geometry" />
        </mxCell>
        <mxCell id="KNuXZPVBmtlSGKYRK09C-60" style="edgeStyle=orthogonalEdgeStyle;rounded=0;orthogonalLoop=1;jettySize=auto;html=1;exitX=0.5;exitY=1;exitDx=0;exitDy=0;" parent="1" source="KNuXZPVBmtlSGKYRK09C-41" edge="1">
          <mxGeometry relative="1" as="geometry">
            <mxPoint x="60.26315789473688" y="500" as="targetPoint" />
          </mxGeometry>
        </mxCell>
        <mxCell id="KNuXZPVBmtlSGKYRK09C-41" value="Input ingredients" style="rounded=1;whiteSpace=wrap;html=1;" parent="1" vertex="1">
          <mxGeometry x="10" y="425" width="100" height="30" as="geometry" />
        </mxCell>
        <mxCell id="KNuXZPVBmtlSGKYRK09C-43" value="" style="endArrow=classic;startArrow=classic;html=1;rounded=0;exitX=0.5;exitY=0;exitDx=0;exitDy=0;entryX=0.5;entryY=1;entryDx=0;entryDy=0;" parent="1" source="KNuXZPVBmtlSGKYRK09C-41" target="KNuXZPVBmtlSGKYRK09C-9" edge="1">
          <mxGeometry width="50" height="50" relative="1" as="geometry">
            <mxPoint x="440" y="430" as="sourcePoint" />
            <mxPoint x="503" y="350" as="targetPoint" />
          </mxGeometry>
        </mxCell>
        <mxCell id="KNuXZPVBmtlSGKYRK09C-44" value="Edit Profile" style="rounded=1;whiteSpace=wrap;html=1;" parent="1" vertex="1">
          <mxGeometry x="250" y="500" width="100" height="30" as="geometry" />
        </mxCell>
        <mxCell id="KNuXZPVBmtlSGKYRK09C-45" value="" style="endArrow=classic;startArrow=classic;html=1;rounded=0;exitX=0.5;exitY=0;exitDx=0;exitDy=0;entryX=0.5;entryY=1;entryDx=0;entryDy=0;" parent="1" source="KNuXZPVBmtlSGKYRK09C-44" target="KNuXZPVBmtlSGKYRK09C-13" edge="1">
          <mxGeometry width="50" height="50" relative="1" as="geometry">
            <mxPoint x="440" y="430" as="sourcePoint" />
            <mxPoint x="503" y="350" as="targetPoint" />
          </mxGeometry>
        </mxCell>
        <mxCell id="KNuXZPVBmtlSGKYRK09C-47" value="Logout" style="rounded=1;whiteSpace=wrap;html=1;" parent="1" vertex="1">
          <mxGeometry x="875" y="310" width="100" height="30" as="geometry" />
        </mxCell>
        <mxCell id="KNuXZPVBmtlSGKYRK09C-49" value="" style="ellipse;html=1;shape=endState;fillColor=#000000;strokeColor=#ff0000;" parent="1" vertex="1">
          <mxGeometry x="910" y="520" width="30" height="30" as="geometry" />
        </mxCell>
        <mxCell id="KNuXZPVBmtlSGKYRK09C-54" value="" style="endArrow=classic;startArrow=classic;html=1;rounded=0;exitX=0;exitY=0.5;exitDx=0;exitDy=0;entryX=1;entryY=0.5;entryDx=0;entryDy=0;" parent="1" source="KNuXZPVBmtlSGKYRK09C-47" target="KNuXZPVBmtlSGKYRK09C-4" edge="1">
          <mxGeometry width="50" height="50" relative="1" as="geometry">
            <mxPoint x="830" y="320" as="sourcePoint" />
            <mxPoint x="555" y="250" as="targetPoint" />
          </mxGeometry>
        </mxCell>
        <mxCell id="KNuXZPVBmtlSGKYRK09C-56" value="" style="endArrow=classic;startArrow=classic;html=1;rounded=0;exitX=0.5;exitY=0;exitDx=0;exitDy=0;entryX=0.5;entryY=1;entryDx=0;entryDy=0;" parent="1" source="KNuXZPVBmtlSGKYRK09C-49" target="KNuXZPVBmtlSGKYRK09C-47" edge="1">
          <mxGeometry width="50" height="50" relative="1" as="geometry">
            <mxPoint x="550" y="350" as="sourcePoint" />
            <mxPoint x="600" y="300" as="targetPoint" />
          </mxGeometry>
        </mxCell>
        <mxCell id="KNuXZPVBmtlSGKYRK09C-57" value="" style="endArrow=none;html=1;rounded=0;strokeWidth=2;" parent="1" edge="1">
          <mxGeometry width="50" height="50" relative="1" as="geometry">
            <mxPoint x="20" y="500" as="sourcePoint" />
            <mxPoint x="200" y="500" as="targetPoint" />
          </mxGeometry>
        </mxCell>
        <mxCell id="KNuXZPVBmtlSGKYRK09C-58" value="Post Recipe" style="rounded=1;whiteSpace=wrap;html=1;" parent="1" vertex="1">
          <mxGeometry x="60" y="570" width="100" height="30" as="geometry" />
        </mxCell>
        <mxCell id="KNuXZPVBmtlSGKYRK09C-61" style="edgeStyle=orthogonalEdgeStyle;rounded=0;orthogonalLoop=1;jettySize=auto;html=1;exitX=0.25;exitY=1;exitDx=0;exitDy=0;" parent="1" source="KNuXZPVBmtlSGKYRK09C-59" edge="1">
          <mxGeometry relative="1" as="geometry">
            <mxPoint x="155" y="500" as="targetPoint" />
          </mxGeometry>
        </mxCell>
        <mxCell id="KNuXZPVBmtlSGKYRK09C-59" value="Input directions" style="rounded=1;whiteSpace=wrap;html=1;" parent="1" vertex="1">
          <mxGeometry x="130" y="425" width="100" height="30" as="geometry" />
        </mxCell>
        <mxCell id="KNuXZPVBmtlSGKYRK09C-63" value="" style="endArrow=classic;html=1;rounded=0;entryX=0.5;entryY=0;entryDx=0;entryDy=0;" parent="1" target="KNuXZPVBmtlSGKYRK09C-58" edge="1">
          <mxGeometry width="50" height="50" relative="1" as="geometry">
            <mxPoint x="110" y="500" as="sourcePoint" />
            <mxPoint x="540" y="490" as="targetPoint" />
          </mxGeometry>
        </mxCell>
        <mxCell id="KNuXZPVBmtlSGKYRK09C-64" value="" style="endArrow=classic;startArrow=classic;html=1;rounded=0;entryX=0.5;entryY=0;entryDx=0;entryDy=0;" parent="1" target="KNuXZPVBmtlSGKYRK09C-59" edge="1">
          <mxGeometry width="50" height="50" relative="1" as="geometry">
            <mxPoint x="120" y="340" as="sourcePoint" />
            <mxPoint x="540" y="490" as="targetPoint" />
          </mxGeometry>
        </mxCell>
        <mxCell id="Z7ugXaAyDMeHCzsj9G0W-1" value="&lt;font size=&quot;1&quot; style=&quot;&quot;&gt;&lt;b style=&quot;&quot;&gt;&lt;i style=&quot;font-size: 16px;&quot;&gt;PlateFull Activity Diagram&lt;/i&gt;&lt;/b&gt;&lt;/font&gt;" style="rounded=0;whiteSpace=wrap;html=1;fillColor=#dae8fc;strokeColor=#6c8ebf;" vertex="1" parent="1">
          <mxGeometry x="840" y="10" width="210" height="60" as="geometry" />
        </mxCell>
      </root>
    </mxGraphModel>
  </diagram>
</mxfile>
